<?xml version="1.0" standalone="no"?><!DOCTYPE svg PUBLIC "-//W3C//DTD SVG 1.1//EN" "http://www.w3.org/Graphics/SVG/1.1/DTD/svg11.dtd"><svg t="1719333206754" class="icon" viewBox="0 0 1024 1024" version="1.1" xmlns="http://www.w3.org/2000/svg" p-id="10330" xmlns:xlink="http://www.w3.org/1999/xlink" width="48" height="48"><path d="M497.322667 909.269333a411.818667 411.818667 0 0 1-291.242667-120.746666 409.386667 409.386667 0 0 1-88.32-130.773334A408.832 408.832 0 0 1 85.333333 497.408c0-55.594667 10.922667-109.525333 32.426667-160.298667a409.088 409.088 0 0 1 88.32-131.072A409.898667 409.898667 0 0 1 336.938667 117.76 408.832 408.832 0 0 1 497.322667 85.333333c55.594667 0 109.525333 10.922667 160.298666 32.426667a411.818667 411.818667 0 0 1 130.986667 88.32 409.898667 409.898667 0 0 1 88.234667 130.901333c21.504 50.773333 32.426667 104.746667 32.426666 160.341334a411.818667 411.818667 0 0 1-120.746666 291.242666 409.898667 409.898667 0 0 1-130.901334 88.277334 406.741333 406.741333 0 0 1-160.298666 32.426666z m0-781.653333c-203.818667 0-369.664 165.888-369.664 369.706667 0 203.818667 165.845333 369.664 369.664 369.664 203.818667 0 369.664-165.845333 369.664-369.664 0-203.818667-165.845333-369.664-369.664-369.664z" fill="#d81e06" p-id="10331"></path><path d="M506.112 771.754667a263.765333 263.765333 0 0 1-187.818667-77.824 263.594667 263.594667 0 0 1-77.824-187.818667 264.106667 264.106667 0 0 1 77.696-187.733333 263.552 263.552 0 0 1 187.477334-77.909334 21.162667 21.162667 0 1 1 0 42.325334 223.744 223.744 0 0 0-222.848 223.317333 223.530667 223.530667 0 0 0 223.317333 223.317333 223.530667 223.530667 0 0 0 223.317333-223.317333v-0.426667c0-11.648 9.557333-21.205333 21.162667-21.205333 11.648 0 21.162667 9.557333 21.162667 21.162667v0.469333a263.765333 263.765333 0 0 1-77.824 187.818667 263.765333 263.765333 0 0 1-187.818667 77.824z" fill="#d81e06" p-id="10332"></path><path d="M510.336 624.64h-0.341333a21.205333 21.205333 0 0 1 0.128-42.368h0.213333a72.192 72.192 0 1 0-72.064-66.858667 21.248 21.248 0 0 1-42.282667 3.072 114.602667 114.602667 0 0 1 114.133334-122.837333 114.602667 114.602667 0 0 1 114.474666 114.474667 114.432 114.432 0 0 1-114.261333 114.474666z" fill="#d81e06" p-id="10333"></path></svg>